HIERARCHY
ROOT Hips
{
	OFFSET 0.000000 0.000000 0.000000
	CHANNELS 6 Xposition Yposition Zposition Xrotation Yrotation Zrotation
	JOINT LeftUpLeg_virtual
	{
		OFFSET 0.000000 0.000000 0.000000
		CHANNELS 3 Xrotation Yrotation Zrotation
		JOINT LeftUpLeg
		{
			OFFSET 11.394100 -6.187798 -0.413800
			CHANNELS 3 Xrotation Yrotation Zrotation
			JOINT LeftLeg
			{
				OFFSET 0.430247 -32.302673 3.732800
				CHANNELS 3 Xrotation Yrotation Zrotation
				JOINT LeftFoot
				{
					OFFSET -0.430247 -48.264931 -6.423300
					CHANNELS 3 Xrotation Yrotation Zrotation
					JOINT LeftToeBase
					{
						OFFSET 4.230900 -16.068199 23.438400
						CHANNELS 3 Xrotation Yrotation Zrotation
						JOINT LeftToe_End
						{
							OFFSET 4.510700 0.695400 19.974600
							CHANNELS 3 Xrotation Yrotation Zrotation
							End Site
							{
								OFFSET 0 0 0
							}
						}
					}
				}
			}
		}
	}
	JOINT RightUpLeg_virtual
	{
		OFFSET 0.000000 0.000000 0.000000
		CHANNELS 3 Xrotation Yrotation Zrotation
		JOINT RightUpLeg
		{
			OFFSET -11.333700 -6.187798 -0.413800
			CHANNELS 3 Xrotation Yrotation Zrotation
			JOINT RightLeg
			{
				OFFSET -0.430392 -32.302628 3.733000
				CHANNELS 3 Xrotation Yrotation Zrotation
				JOINT RightFoot
				{
					OFFSET 0.430392 -48.264973 -6.423500
					CHANNELS 3 Xrotation Yrotation Zrotation
					JOINT RightToeBase
					{
						OFFSET -4.230900 -16.068199 23.438400
						CHANNELS 3 Xrotation Yrotation Zrotation
						JOINT RightToe_End
						{
							OFFSET -4.510700 0.695400 19.974600
							CHANNELS 3 Xrotation Yrotation Zrotation
							End Site
							{
								OFFSET 0 0 0
							}
						}
					}
				}
			}
		}
	}
	JOINT Spine_virtual
	{
		OFFSET 0.000000 0.000000 0.000000
		CHANNELS 3 Xrotation Yrotation Zrotation
		JOINT Spine
		{
			OFFSET -0.002400 12.777504 0.315300
			CHANNELS 3 Xrotation Yrotation Zrotation
			JOINT Spine1
			{
				OFFSET -0.002067 5.816869 0.032633
				CHANNELS 3 Xrotation Yrotation Zrotation
				JOINT Spine1_split
				{
					OFFSET -0.002067 5.816869 0.032633
					CHANNELS 3 Xrotation Yrotation Zrotation
					JOINT Spine2
					{
						OFFSET -0.002067 5.816869 0.032633
						CHANNELS 3 Xrotation Yrotation Zrotation
						JOINT Neck_virtual
						{
							OFFSET 0.000000 0.000000 0.000000
							CHANNELS 3 Xrotation Yrotation Zrotation
							JOINT Neck
							{
								OFFSET -0.003700 21.199493 -0.826900
								CHANNELS 3 Xrotation Yrotation Zrotation
								JOINT Head
								{
									OFFSET 0.000000 20.442200 4.834800
									CHANNELS 3 Xrotation Yrotation Zrotation
									JOINT HeadTop_End
									{
										OFFSET 0.000000 34.668396 4.968400
										CHANNELS 3 Xrotation Yrotation Zrotation
										End Site
										{
											OFFSET 0 0 0
										}
									}
								}
							}
						}
						JOINT LeftShoulder_virtual
						{
							OFFSET 0.000000 0.000000 0.000000
							CHANNELS 3 Xrotation Yrotation Zrotation
							JOINT LeftShoulder
							{
								OFFSET 3.288150 8.794197 -1.372250
								CHANNELS 3 Xrotation Yrotation Zrotation
								JOINT LeftShoulder_split
								{
									OFFSET 3.288150 8.794197 -1.372250
									CHANNELS 3 Xrotation Yrotation Zrotation
									JOINT LeftArm
									{
										OFFSET 11.953299 -2.279007 -0.146200
										CHANNELS 3 Xrotation Yrotation Zrotation
										JOINT LeftForeArm
										{
											OFFSET 18.448900 0.000000 0.000000
											CHANNELS 3 Xrotation Yrotation Zrotation
											JOINT LeftHand
											{
												OFFSET 29.527798 0.000000 0.000000
												CHANNELS 3 Xrotation Yrotation Zrotation
												End Site
												{
													OFFSET 0 0 0
												}
											}
										}
									}
								}
							}
						}
						JOINT RightShoulder_virtual
						{
							OFFSET 0.000000 0.000000 0.000000
							CHANNELS 3 Xrotation Yrotation Zrotation
							JOINT RightShoulder
							{
								OFFSET -3.249400 8.794197 -1.372250
								CHANNELS 3 Xrotation Yrotation Zrotation
								JOINT RightShoulder_split
								{
									OFFSET -3.249400 8.794197 -1.372250
									CHANNELS 3 Xrotation Yrotation Zrotation
									JOINT RightArm
									{
										OFFSET -11.953299 -2.279007 -0.146200
										CHANNELS 3 Xrotation Yrotation Zrotation
										JOINT RightForeArm
										{
											OFFSET -18.448900 0.000000 0.000000
											CHANNELS 3 Xrotation Yrotation Zrotation
											JOINT RightHand
											{
												OFFSET -29.527802 0.000000 0.000000
												CHANNELS 3 Xrotation Yrotation Zrotation
												End Site
												{
													OFFSET 0 0 0
												}
											}
										}
									}
								}
							}
						}
					}
				}
			}
		}
	}
}
MOTION
Frames: 6
Frame Time: 0.03333333
-0.467597 215.683609 1.414818 0.000000 0.000000 0.000000 -4.908849 6.255516 7.116028 -17.040542 17.907118 9.742859 10.876958 -3.152754 0.520806 -9.009004 -1.257020 -0.258303 -1.852109 -0.581988 -2.217256 0.000000 0.000000 0.000000 -3.006038 2.745008 6.242080 -8.160231 -3.808280 -5.916487 12.421939 1.694651 -1.455692 -18.047991 -3.605049 1.315161 -9.555436 -0.420994 -4.839364 0.000000 0.000000 0.000000 -0.640651 3.455203 5.570948 1.949738 -0.962020 1.822897 10.550243 -0.714305 3.652082 1.409303 1.655363 0.222450 0.000000 0.000000 0.000000 9.654873 -0.929993 3.180645 0.117692 0.536836 -4.397280 7.981646 8.140589 -7.906813 0.000000 0.000000 0.000000 11.002145 -0.982708 2.876238 0.272481 16.101456 -9.014127 -0.805184 -2.040602 -0.555264 1.756272 -12.573670 -60.364693 -0.585200 -48.325856 0.471648 0.000000 0.000000 0.000000 11.251589 -0.483900 3.341838 2.313770 2.775564 7.623082 0.607930 0.784396 -1.160469 -1.977138 7.916372 56.917985 1.590928 38.445813 -1.516954 0.000000 0.000000 0.000000 
-0.617812 215.686340 1.279305 0.000000 0.000000 0.000000 -4.819133 6.553978 7.041064 -17.249238 17.478627 9.856431 10.893815 -2.634835 0.710082 -9.066330 -0.866635 -0.046653 -1.819733 -0.564694 -2.531029 0.000000 0.000000 0.000000 -2.800055 2.940148 6.051134 -8.277985 -4.008461 -5.829189 11.882933 1.539259 -1.425705 -17.839004 -3.809057 1.218985 -9.835787 -0.497968 -4.630899 0.000000 0.000000 0.000000 -0.473915 3.149297 5.613357 1.911177 -1.014059 1.803951 10.586634 -0.716621 3.573822 1.018323 1.606841 -0.003203 0.000000 0.000000 0.000000 9.634124 -0.928713 3.127019 -0.370345 0.499925 -4.572028 8.058740 7.847917 -7.757069 0.000000 0.000000 0.000000 11.012038 -0.953282 2.796139 0.269131 15.952108 -8.558056 -1.183094 -1.484594 -0.777757 1.111011 -12.661315 -60.343219 -0.681415 -48.357736 0.299728 0.000000 0.000000 0.000000 11.308733 -0.519595 3.245570 2.250287 2.662749 7.572956 0.370915 0.633515 -1.064972 -2.057359 8.013233 56.724151 1.510257 40.009691 -1.358645 0.000000 0.000000 0.000000 
-0.780689 215.430984 1.082058 0.000000 0.000000 0.000000 -4.437464 6.770409 6.793449 -17.879769 17.106376 10.064213 11.257119 -1.826621 0.903424 -9.660635 -0.110375 0.437862 -2.111305 -0.551468 -2.479651 0.000000 0.000000 0.000000 -2.275083 3.008727 5.779065 -8.860821 -4.156416 -5.726066 12.201148 1.428456 -1.354757 -18.590146 -3.933615 1.202445 -10.112404 -0.531657 -4.470655 0.000000 0.000000 0.000000 0.052692 2.800232 5.601442 1.923565 -0.893583 1.837306 10.619126 -0.697552 3.456106 0.783898 1.343911 -0.175181 0.000000 0.000000 0.000000 9.661523 -0.898729 3.030352 -1.098178 0.525453 -4.802189 7.584730 7.290097 -7.265516 0.000000 0.000000 0.000000 10.912953 -0.905001 2.699559 0.193746 15.651691 -7.806444 -1.463485 -1.106482 -1.007648 0.491670 -12.849977 -60.265129 -0.474509 -48.873784 0.264731 0.000000 0.000000 0.000000 11.328579 -0.535682 3.115753 2.189962 2.604615 7.262532 0.076230 0.183033 -0.896443 -1.401631 9.198974 56.110479 1.499032 42.267492 -1.220651 0.000000 0.000000 0.000000 
-0.911850 214.935852 0.751900 0.000000 0.000000 0.000000 -3.879525 6.957731 6.434030 -19.025010 16.732227 10.183230 12.161130 -0.966632 1.078333 -10.630729 0.738284 0.947793 -2.556914 -0.549683 -2.041913 0.000000 0.000000 0.000000 -1.603302 3.090425 5.463411 -9.766336 -4.127024 -5.644196 13.101635 1.320923 -1.307468 -20.420756 -3.982137 1.226981 -10.071651 -0.513190 -4.497132 0.000000 0.000000 0.000000 0.885494 2.582001 5.517765 1.997908 -0.671360 1.920084 10.674157 -0.710126 3.340199 0.704613 0.997090 -0.359127 0.000000 0.000000 0.000000 9.760981 -0.893815 2.911064 -1.930948 0.588111 -5.009005 6.568033 6.584289 -6.509368 0.000000 0.000000 0.000000 10.777475 -0.887889 2.606450 0.069651 15.175569 -6.928274 -1.510921 -0.972866 -1.194050 -0.209340 -13.093457 -60.004831 -0.108642 -49.623725 0.282490 0.000000 0.000000 0.000000 11.295674 -0.570774 2.984846 2.116107 2.702694 6.806119 -0.071383 -0.364062 -0.789421 -0.109544 11.305535 55.080005 1.571557 44.933509 -1.134745 0.000000 0.000000 0.000000 
-0.896152 214.301956 0.286724 0.000000 0.000000 0.000000 -3.236658 7.284427 6.056567 -20.782070 16.327154 10.071160 13.753315 -0.358646 1.222354 -11.637956 1.421452 1.118999 -2.811320 -0.568164 -1.344667 0.000000 0.000000 0.000000 -0.959160 3.264233 5.180817 -10.725420 -3.834406 -5.606877 14.273234 1.134407 -1.302386 -22.991921 -3.955329 1.288991 -9.562097 -0.419901 -4.732406 0.000000 0.000000 0.000000 1.881919 2.643963 5.381737 2.134497 -0.468723 2.015092 10.773601 -0.812921 3.252644 0.666058 0.675491 -0.417391 0.000000 0.000000 0.000000 9.944698 -0.968967 2.811047 -2.679782 0.658391 -5.093666 5.146671 5.798091 -5.600835 0.000000 0.000000 0.000000 10.693668 -0.948991 2.533737 -0.045085 14.527773 -6.073490 -1.199534 -0.843358 -1.273570 -0.865403 -13.415430 -59.376938 0.251346 -50.613857 0.286801 0.000000 0.000000 0.000000 11.244920 -0.678373 2.892503 2.015741 3.006980 6.293762 -0.123896 -0.917587 -0.918092 1.730713 14.098906 53.550995 1.697012 47.913292 -1.106136 0.000000 0.000000 0.000000 
-0.737041 213.648148 -0.071426 0.000000 0.000000 0.000000 -2.594930 7.909879 5.765348 -23.118404 15.980366 9.636533 16.016044 -0.109391 1.288420 -12.307046 1.815677 0.767129 -2.744280 -0.587874 -0.560682 0.000000 0.000000 0.000000 -0.351524 3.596761 4.982651 -11.528543 -3.315610 -5.621728 15.328024 0.843194 -1.326092 -25.593059 -3.895114 1.477201 -8.857111 -0.255512 -5.119980 0.000000 0.000000 0.000000 2.884901 3.119066 5.210085 2.242232 -0.402913 2.105154 10.950803 -1.031579 3.225051 0.775594 0.486857 -0.234791 0.000000 0.000000 0.000000 10.225326 -1.142014 2.751943 -3.213178 0.721769 -5.050506 3.446791 4.940563 -4.669510 0.000000 0.000000 0.000000 10.753685 -1.107099 2.504141 -0.095820 13.695082 -5.435809 -0.769506 -0.554397 -1.173794 -1.360746 -13.692802 -58.252361 0.485676 -51.805971 0.245705 0.000000 0.000000 0.000000 11.239694 -0.871043 2.860755 1.912348 3.497085 5.809568 0.153529 -1.163370 -1.336789 3.909835 17.183830 51.430860 1.805781 51.436748 -1.083021 0.000000 0.000000 0.000000 
